<?xml version="1.0" encoding="UTF-8" standalone="no"?>
<!DOCTYPE svg PUBLIC "-//W3C//DTD SVG 1.1//EN"
 "http://www.w3.org/Graphics/SVG/1.1/DTD/svg11.dtd">
<!-- Generated by graphviz version 3.0.0 (20220226.1711)
 -->
<!-- Title: dependencies Pages: 1 -->
<svg width="905pt" height="174pt"
 viewBox="0.00 0.00 905.00 173.80" xmlns="http://www.w3.org/2000/svg" xmlns:xlink="http://www.w3.org/1999/xlink">
<g id="graph0" class="graph" transform="scale(1 1) rotate(0) translate(4 169.8)">
<title>dependencies</title>
<polygon fill="white" stroke="transparent" points="-4,4 -4,-169.8 901,-169.8 901,4 -4,4"/>
<text text-anchor="middle" x="448.5" y="-8.2" font-family="sans-serif" font-size="14.00">dependencies</text>
<g id="clust1" class="cluster">
<title>cluster_PublicModule</title>
<polygon fill="none" stroke="black" stroke-dasharray="1,5" points="8,-32.8 8,-157.8 889,-157.8 889,-32.8 8,-32.8"/>
</g>
<g id="clust8" class="cluster">
<title>cluster_PublicModule_imports</title>
<polygon fill="none" stroke="black" points="725,-40.8 725,-92.8 881,-92.8 881,-40.8 725,-40.8"/>
</g>
<g id="clust2" class="cluster">
<title>cluster_PublicModule_declarations</title>
<polygon fill="none" stroke="black" points="16,-40.8 16,-92.8 717,-92.8 717,-40.8 16,-40.8"/>
</g>
<!-- CoktailComponent -->
<g id="node1" class="node">
<title>CoktailComponent</title>
<polygon fill="#ffffb3" stroke="black" points="709.05,-84.8 586.95,-84.8 586.95,-48.8 709.05,-48.8 709.05,-84.8"/>
<text text-anchor="middle" x="648" y="-62.6" font-family="Times,serif" font-size="14.00">CoktailComponent</text>
</g>
<!-- PublicModule -->
<g id="node6" class="node">
<title>PublicModule</title>
<polygon fill="#8dd3c7" stroke="black" points="484.83,-149.8 481.83,-153.8 460.83,-153.8 457.83,-149.8 389.17,-149.8 389.17,-113.8 484.83,-113.8 484.83,-149.8"/>
<text text-anchor="middle" x="437" y="-127.6" font-family="Times,serif" font-size="14.00">PublicModule</text>
</g>
<!-- CoktailComponent&#45;&gt;PublicModule -->
<g id="edge1" class="edge">
<title>CoktailComponent&#45;&gt;PublicModule</title>
<path fill="none" stroke="black" d="M648,-84.82C648,-102.17 648,-125.8 648,-125.8 648,-125.8 494.88,-125.8 494.88,-125.8"/>
<polygon fill="black" stroke="black" points="494.88,-122.3 484.88,-125.8 494.88,-129.3 494.88,-122.3"/>
</g>
<!-- ContactComponent -->
<g id="node2" class="node">
<title>ContactComponent</title>
<polygon fill="#ffffb3" stroke="black" points="568.38,-84.8 443.62,-84.8 443.62,-48.8 568.38,-48.8 568.38,-84.8"/>
<text text-anchor="middle" x="506" y="-62.6" font-family="Times,serif" font-size="14.00">ContactComponent</text>
</g>
<!-- ContactComponent&#45;&gt;PublicModule -->
<g id="edge2" class="edge">
<title>ContactComponent&#45;&gt;PublicModule</title>
<path fill="none" stroke="black" d="M464.11,-84.91C464.11,-84.91 464.11,-103.79 464.11,-103.79"/>
<polygon fill="black" stroke="black" points="460.61,-103.79 464.11,-113.79 467.61,-103.79 460.61,-103.79"/>
</g>
<!-- HomeComponent -->
<g id="node3" class="node">
<title>HomeComponent</title>
<polygon fill="#ffffb3" stroke="black" points="425.55,-84.8 310.45,-84.8 310.45,-48.8 425.55,-48.8 425.55,-84.8"/>
<text text-anchor="middle" x="368" y="-62.6" font-family="Times,serif" font-size="14.00">HomeComponent</text>
</g>
<!-- HomeComponent&#45;&gt;PublicModule -->
<g id="edge3" class="edge">
<title>HomeComponent&#45;&gt;PublicModule</title>
<path fill="none" stroke="black" d="M407.55,-84.91C407.55,-84.91 407.55,-103.79 407.55,-103.79"/>
<polygon fill="black" stroke="black" points="404.05,-103.79 407.55,-113.79 411.05,-103.79 404.05,-103.79"/>
</g>
<!-- PheaderComponent -->
<g id="node4" class="node">
<title>PheaderComponent</title>
<polygon fill="#ffffb3" stroke="black" points="292.42,-84.8 165.58,-84.8 165.58,-48.8 292.42,-48.8 292.42,-84.8"/>
<text text-anchor="middle" x="229" y="-62.6" font-family="Times,serif" font-size="14.00">PheaderComponent</text>
</g>
<!-- PheaderComponent&#45;&gt;PublicModule -->
<g id="edge4" class="edge">
<title>PheaderComponent&#45;&gt;PublicModule</title>
<path fill="none" stroke="black" d="M229,-84.82C229,-102.17 229,-125.8 229,-125.8 229,-125.8 379.28,-125.8 379.28,-125.8"/>
<polygon fill="black" stroke="black" points="379.28,-129.3 389.28,-125.8 379.28,-122.3 379.28,-129.3"/>
</g>
<!-- PlayoutComponent -->
<g id="node5" class="node">
<title>PlayoutComponent</title>
<polygon fill="#ffffb3" stroke="black" points="148.11,-84.8 23.89,-84.8 23.89,-48.8 148.11,-48.8 148.11,-84.8"/>
<text text-anchor="middle" x="86" y="-62.6" font-family="Times,serif" font-size="14.00">PlayoutComponent</text>
</g>
<!-- PlayoutComponent&#45;&gt;PublicModule -->
<g id="edge5" class="edge">
<title>PlayoutComponent&#45;&gt;PublicModule</title>
<path fill="none" stroke="black" d="M86,-85.08C86,-106.12 86,-137.8 86,-137.8 86,-137.8 379.3,-137.8 379.3,-137.8"/>
<polygon fill="black" stroke="black" points="379.3,-141.3 389.3,-137.8 379.3,-134.3 379.3,-141.3"/>
</g>
<!-- PublicRoutingModule -->
<g id="node7" class="node">
<title>PublicRoutingModule</title>
<polygon fill="#8dd3c7" stroke="black" points="873.45,-84.8 870.45,-88.8 849.45,-88.8 846.45,-84.8 732.55,-84.8 732.55,-48.8 873.45,-48.8 873.45,-84.8"/>
<text text-anchor="middle" x="803" y="-62.6" font-family="Times,serif" font-size="14.00">PublicRoutingModule</text>
</g>
<!-- PublicRoutingModule&#45;&gt;PublicModule -->
<g id="edge6" class="edge">
<title>PublicRoutingModule&#45;&gt;PublicModule</title>
<path fill="none" stroke="black" d="M803,-85.08C803,-106.12 803,-137.8 803,-137.8 803,-137.8 494.85,-137.8 494.85,-137.8"/>
<polygon fill="black" stroke="black" points="494.85,-134.3 484.85,-137.8 494.85,-141.3 494.85,-134.3"/>
</g>
</g>
</svg>
